<?xml version="1.0" standalone="no"?>
<!DOCTYPE svg PUBLIC "-//W3C//DTD SVG 20010904//EN"
 "http://www.w3.org/TR/2001/REC-SVG-20010904/DTD/svg10.dtd">
<svg version="1.0" xmlns="http://www.w3.org/2000/svg"
 width="634.000000pt" height="363.000000pt" viewBox="0 0 634.000000 363.000000"
 preserveAspectRatio="xMidYMid meet">

<g transform="translate(0.000000,363.000000) scale(0.100000,-0.100000)"
fill="#000000" stroke="none">
<path d="M3118 3401 c-27 -32 -40 -62 -35 -81 4 -14 -1 -20 -21 -22 -33 -4
-51 -32 -36 -55 17 -27 44 -29 44 -4 0 12 4 21 10 21 13 0 32 -37 29 -58 -3
-37 1 -63 11 -57 11 7 2 -23 -13 -43 -9 -11 -14 -9 -27 8 -12 16 -23 20 -38
15 -25 -7 -30 -43 -7 -51 22 -9 18 -24 -5 -24 -10 0 -24 9 -30 20 -15 28 -37
25 -44 -5 -5 -19 -13 -25 -34 -25 -25 1 -25 2 -9 14 9 7 17 23 17 35 0 30 -37
27 -62 -5 -18 -23 -22 -24 -36 -11 -9 9 -11 20 -6 28 10 17 10 50 1 66 -4 6
-2 24 4 40 l11 28 12 -23 c10 -19 14 -21 30 -9 11 8 17 22 14 38 -2 20 -9 25
-40 27 -30 3 -38 7 -38 22 0 18 -56 57 -66 47 -7 -7 89 -413 100 -424 2 -2 34
4 72 14 93 22 341 23 439 0 38 -9 71 -14 73 -12 5 4 77 285 92 358 6 32 9 61
7 64 -11 10 -67 -32 -67 -50 0 -15 -5 -18 -23 -13 -32 8 -60 -14 -55 -45 4
-30 44 -40 50 -12 4 15 7 13 18 -9 10 -22 10 -30 1 -42 -7 -8 -10 -20 -6 -26
4 -6 1 -18 -6 -26 -10 -12 -9 -13 5 -8 19 7 22 -16 4 -34 -9 -9 -18 -5 -39 18
-18 19 -34 28 -43 24 -21 -8 -20 -44 0 -59 16 -11 16 -12 0 -18 -12 -5 -23 3
-38 29 l-21 36 -20 -26 c-10 -14 -27 -26 -38 -26 -23 0 -25 15 -3 24 21 8 14
50 -9 54 -10 2 -26 -7 -36 -19 l-18 -23 -18 28 c-14 22 -16 29 -6 36 7 4 14
26 15 49 3 50 23 78 33 43 6 -26 30 -26 47 1 15 23 -3 51 -36 55 -20 2 -24 8
-21 25 5 25 -35 90 -57 95 -8 1 -23 -6 -32 -17z"/>
<path d="M2980 2914 c-52 -8 -99 -19 -104 -24 -4 -4 -5 -22 -1 -39 7 -34 0
-33 105 -10 74 17 269 14 355 -4 76 -17 87 -13 83 33 -3 21 -11 26 -63 37
-100 21 -269 24 -375 7z m50 -29 c0 -19 -20 -29 -32 -17 -8 8 -7 16 2 26 14
17 30 12 30 -9z m90 4 c0 -25 -33 -22 -38 4 -2 12 3 17 17 17 15 0 21 -6 21
-21z m90 1 c0 -13 -7 -20 -20 -20 -13 0 -20 7 -20 20 0 13 7 20 20 20 13 0 20
-7 20 -20z m90 -5 c0 -19 -20 -29 -32 -17 -15 15 -2 43 17 36 8 -3 15 -12 15
-19z m-360 -21 c0 -14 -21 -19 -33 -7 -9 9 13 34 24 27 5 -3 9 -12 9 -20z
m448 3 c2 -12 -3 -17 -17 -17 -15 0 -21 6 -21 21 0 25 33 22 38 -4z"/>
<path d="M3045 2739 c-231 -27 -450 -133 -613 -296 -46 -47 -71 -65 -66 -51
12 33 7 74 -11 102 l-16 24 48 7 c164 23 247 93 213 176 -18 43 -70 50 -85 12
-9 -25 12 -40 34 -26 33 21 42 -16 17 -66 -21 -40 -88 -68 -191 -81 -175 -21
-256 -90 -256 -218 -1 -59 -10 -84 -24 -62 -3 5 -28 10 -54 10 -39 0 -53 -5
-75 -26 -62 -62 1 -148 72 -98 30 21 28 34 -7 34 -21 0 -32 6 -36 20 -9 30 12
50 52 50 50 0 103 -54 103 -104 0 -87 -77 -170 -193 -207 -40 -12 -98 -33
-131 -46 -32 -13 -60 -22 -63 -20 -2 3 5 23 16 45 30 59 37 133 17 185 -29 76
-107 100 -165 51 -65 -54 -21 -167 53 -138 26 10 38 41 26 64 -16 29 -48 25
-61 -7 -8 -22 -12 -24 -19 -13 -16 24 -11 45 13 68 33 31 81 29 112 -4 66 -71
28 -203 -89 -319 -74 -72 -99 -120 -104 -200 -8 -114 59 -199 164 -211 83 -9
153 35 169 106 9 42 -12 107 -40 126 -38 25 -100 29 -130 10 -54 -35 -9 -135
47 -105 28 15 22 48 -9 60 -27 10 -28 11 -8 25 36 27 92 0 115 -56 17 -41 -17
-112 -63 -131 -102 -43 -209 24 -224 141 -17 126 118 270 255 270 50 0 140
-29 162 -52 27 -30 33 -66 15 -94 -19 -30 -30 -30 -49 -3 -19 27 -36 16 -36
-22 0 -58 31 -87 73 -68 57 27 76 109 40 171 -27 46 -111 88 -176 88 -63 0
-53 11 38 40 150 49 213 91 246 165 24 52 24 88 -2 160 -24 68 -20 121 11 165
38 54 120 58 120 6 0 -14 -5 -28 -10 -31 -6 -4 -8 -11 -5 -16 9 -13 49 -11 63
3 6 6 14 9 17 7 2 -3 -18 -39 -46 -80 -65 -96 -104 -181 -137 -299 -25 -87
-27 -111 -27 -270 0 -151 3 -187 23 -260 25 -89 85 -229 123 -281 28 -40 19
-46 -26 -15 -95 65 -240 40 -296 -51 -78 -126 62 -293 162 -194 16 16 29 38
29 49 0 29 -38 72 -64 72 -30 0 -57 -30 -50 -57 8 -28 -8 -36 -34 -17 -51 36
-30 139 37 178 40 23 136 24 179 2 43 -22 101 -93 108 -133 21 -110 -27 -203
-131 -254 -102 -50 -232 -49 -341 3 -66 30 -89 104 -61 193 17 57 43 96 88
130 41 32 48 45 24 45 -41 0 -113 -61 -151 -128 -1 -2 -18 7 -38 19 -20 12
-39 19 -43 16 -3 -4 6 -38 21 -77 36 -98 34 -114 -9 -66 -122 138 -102 389 33
423 51 13 106 -4 110 -33 3 -21 -16 -48 -40 -56 -27 -9 7 -28 50 -28 118 0
156 94 63 157 -98 66 -232 28 -298 -84 -26 -44 -28 -56 -28 -153 0 -66 5 -113
13 -127 7 -13 8 -23 3 -23 -5 0 -53 65 -105 144 -105 158 -156 210 -253 258
-51 25 -81 32 -141 36 -70 4 -82 1 -132 -25 -137 -72 -139 -240 -5 -305 134
-65 214 90 82 159 -35 18 -44 11 -29 -22 16 -35 15 -51 -4 -69 -21 -22 -67
-20 -88 3 -61 67 -15 187 83 220 128 43 284 -24 396 -169 49 -64 53 -80 13
-59 -12 7 -66 26 -118 41 -52 16 -104 32 -114 35 -17 5 -18 3 -12 -23 4 -16
16 -38 27 -50 26 -28 24 -37 -11 -52 -67 -30 -130 -121 -130 -188 0 -14 8 -8
32 21 87 108 172 156 271 157 61 0 129 -21 143 -43 5 -8 -6 -9 -37 -3 -136 24
-206 -8 -355 -162 -85 -87 -125 -120 -168 -140 -67 -31 -121 -27 -157 12 -24
26 -19 39 16 46 25 4 26 37 2 52 -28 18 -71 -12 -75 -53 -6 -64 81 -120 158
-102 70 16 116 46 196 126 l81 82 11 -43 c14 -52 56 -85 118 -92 51 -5 80 10
108 58 l18 32 -30 -7 c-24 -5 -35 -2 -51 14 -28 28 -26 55 7 92 24 27 37 33
84 37 75 6 121 -11 163 -61 38 -44 43 -57 22 -57 -21 0 -50 -37 -44 -55 10
-24 37 -17 55 15 20 35 22 36 48 12 88 -80 192 -132 305 -152 103 -19 206 5
287 66 l34 26 14 -21 c22 -31 124 -27 124 6 0 28 31 73 50 73 11 0 20 -7 20
-15 0 -8 -4 -15 -10 -15 -5 0 -10 -4 -10 -10 0 -17 36 -11 55 10 17 18 17 21
1 45 -22 34 -49 32 -81 -6 -24 -29 -27 -30 -39 -14 -7 10 -25 17 -39 17 -30 1
-31 5 -17 62 8 37 3 83 -16 145 -5 17 19 -2 77 -60 144 -146 296 -234 489
-282 191 -49 358 -46 548 9 85 25 214 81 220 96 2 5 8 8 14 8 21 0 146 99 226
180 67 67 81 78 67 50 -16 -32 -23 -121 -13 -184 2 -13 -4 -19 -20 -21 -13 -1
-30 -9 -39 -18 -15 -14 -18 -13 -44 14 -30 33 -50 36 -73 13 -20 -20 -20 -38
0 -58 18 -18 40 -21 49 -6 3 6 1 10 -4 10 -6 0 -11 7 -11 15 0 8 6 15 14 15
19 0 56 -47 56 -70 0 -36 88 -42 120 -10 20 20 22 20 38 4 9 -10 46 -31 82
-48 58 -28 74 -31 150 -30 123 2 240 47 341 130 30 24 57 44 60 44 4 0 12 -13
19 -30 8 -18 20 -30 31 -30 11 0 19 -7 19 -15 0 -8 -7 -15 -15 -15 -18 0 -48
-44 -43 -64 3 -13 7 -13 36 1 19 9 32 23 32 34 0 11 7 19 15 19 8 0 15 -8 15
-18 0 -18 62 -56 73 -46 8 8 -13 64 -24 66 -5 0 -15 1 -21 2 -7 1 -16 10 -19
21 -3 11 -13 19 -22 19 -11 -1 -17 6 -17 18 0 11 -13 26 -30 36 -16 9 -30 20
-30 24 0 17 67 82 97 94 73 31 174 8 203 -46 26 -49 -22 -106 -69 -81 -34 18
-27 -12 13 -53 26 -28 41 -36 69 -36 73 0 131 43 143 107 l6 32 73 -77 c84
-89 159 -133 228 -134 83 -2 152 61 131 119 -12 36 -58 54 -81 31 -20 -20 -10
-48 16 -48 50 0 21 -53 -38 -71 -32 -9 -48 -8 -92 6 -47 15 -70 34 -174 140
-66 67 -139 132 -162 143 -81 42 -156 47 -236 16 -10 -3 -17 -1 -17 5 0 21 89
51 151 51 101 0 187 -47 264 -143 35 -43 40 -47 43 -28 5 35 -36 107 -85 151
-25 22 -52 40 -59 40 -8 0 -14 9 -14 20 0 11 4 20 8 20 4 0 16 14 26 31 20 34
15 69 -7 50 -8 -6 -53 -22 -101 -36 -48 -14 -101 -32 -118 -41 -16 -8 -32 -13
-35 -10 -8 8 60 96 111 144 100 93 252 129 346 80 25 -13 55 -38 67 -57 57
-85 -2 -199 -84 -162 -21 10 -24 17 -21 44 3 17 9 40 13 51 7 16 5 17 -16 11
-36 -11 -78 -56 -85 -92 -6 -28 -2 -37 26 -63 37 -34 62 -37 121 -14 124 50
134 222 17 299 -34 23 -57 29 -114 33 -158 10 -298 -78 -409 -259 -21 -35 -59
-91 -83 -124 l-45 -60 9 45 c5 25 9 83 8 130 0 66 -5 94 -22 126 -42 81 -124
129 -207 121 -134 -13 -200 -114 -111 -168 32 -20 101 -25 125 -10 11 7 8 13
-13 26 -29 19 -35 55 -11 75 22 18 91 14 127 -7 47 -28 68 -63 78 -133 11 -77
-1 -146 -37 -217 -25 -50 -68 -101 -77 -92 -5 5 38 137 48 146 3 4 6 13 6 20
0 17 -36 9 -61 -13 -22 -20 -25 -18 -49 24 -24 43 -92 92 -127 92 -19 0 -16
-6 25 -44 86 -81 122 -189 87 -266 -13 -30 -28 -43 -65 -59 -104 -45 -194 -52
-289 -22 -76 24 -123 58 -157 117 -23 39 -26 53 -22 112 3 55 9 75 33 109 42
58 93 85 164 86 43 0 68 -5 94 -22 64 -39 82 -142 31 -176 -26 -17 -30 -13
-36 35 -2 16 -12 28 -30 34 -23 8 -32 6 -53 -14 -33 -31 -32 -65 4 -101 72
-71 181 -4 181 112 0 90 -65 156 -165 166 -59 6 -137 -11 -156 -34 -7 -8 -21
-19 -32 -25 -20 -10 -20 -9 2 23 46 71 91 171 122 270 31 99 32 112 33 279 1
152 -2 186 -21 257 -41 146 -68 204 -176 373 l-18 29 29 -11 c16 -6 37 -8 47
-4 17 6 17 7 -1 27 -35 39 28 78 81 49 54 -29 76 -141 41 -208 -33 -65 -16
-143 48 -210 38 -41 83 -65 183 -97 109 -35 115 -41 44 -48 -84 -7 -140 -40
-169 -99 -21 -41 -22 -51 -12 -88 25 -94 130 -97 130 -4 0 41 -17 53 -36 25
-20 -27 -30 -27 -50 4 -26 39 -4 88 50 115 148 71 322 -2 370 -154 16 -49 16
-63 5 -109 -15 -63 -57 -110 -117 -127 -35 -11 -48 -11 -86 4 -52 20 -78 55
-80 107 -1 57 52 105 103 92 24 -6 29 -33 6 -33 -8 0 -19 -9 -25 -19 -8 -16
-6 -23 11 -35 37 -25 79 1 79 49 0 83 -142 87 -185 5 -46 -90 28 -200 136
-200 19 0 58 12 86 26 42 20 57 35 77 77 58 116 22 223 -116 344 -46 40 -82
130 -83 201 0 58 3 66 28 88 37 32 81 31 113 -1 25 -25 29 -55 8 -62 -6 -2
-14 6 -17 17 -4 15 -12 21 -28 18 -35 -5 -46 -31 -26 -62 33 -49 95 -25 104
41 6 49 -23 90 -73 99 -110 21 -170 -110 -110 -242 14 -31 24 -59 21 -62 -2
-3 -30 6 -62 20 -32 14 -85 33 -118 42 -77 23 -133 58 -168 107 -49 67 -48
140 0 185 50 46 140 23 112 -29 -6 -9 -21 -17 -34 -17 -31 0 -32 -14 -3 -34
30 -21 61 -20 81 2 25 27 21 60 -12 93 -23 23 -38 29 -71 29 -23 0 -50 -5 -61
-10 -18 -10 -19 -7 -19 50 0 139 -74 207 -250 230 -146 18 -210 55 -210 120 0
35 8 42 31 27 30 -18 45 11 19 37 -16 17 -23 18 -44 8 -55 -25 -41 -115 24
-158 24 -16 71 -32 122 -42 l84 -15 -18 -36 c-18 -34 -18 -52 -1 -98 3 -10
-27 15 -68 56 -172 171 -377 270 -624 300 -100 12 -128 12 -230 0z m297 -73
c207 -40 382 -137 529 -294 118 -124 194 -260 236 -419 43 -164 34 -406 -21
-560 -86 -243 -268 -446 -501 -558 -155 -76 -223 -90 -420 -90 -200 1 -272 16
-425 91 -263 130 -441 348 -522 642 -18 64 -22 104 -22 237 1 145 3 168 27
248 69 224 182 390 362 528 107 82 263 150 410 177 77 15 265 14 347 -2z"/>
<path d="M3127 2643 c18 -2 50 -2 70 0 21 2 7 4 -32 4 -38 0 -55 -2 -38 -4z"/>
<path d="M3018 2633 c12 -2 30 -2 40 0 9 3 -1 5 -23 4 -22 0 -30 -2 -17 -4z"/>
<path d="M3288 2633 c6 -2 18 -2 25 0 6 3 1 5 -13 5 -14 0 -19 -2 -12 -5z"/>
<path d="M2885 2605 c-39 -17 -21 -18 25 0 19 7 28 14 20 14 -8 0 -28 -6 -45
-14z"/>
<path d="M2790 2570 c-8 -5 -10 -10 -5 -10 6 0 17 5 25 10 8 5 11 10 5 10 -5
0 -17 -5 -25 -10z"/>
<path d="M2995 2555 c-168 -31 -360 -140 -465 -263 -22 -26 -51 -60 -65 -77
-40 -47 -113 -202 -136 -290 -29 -109 -32 -298 -5 -410 78 -336 356 -596 700
-656 96 -16 281 -6 374 20 242 70 440 240 550 472 40 83 60 159 73 280 28 236
-65 499 -236 674 -208 213 -496 304 -790 250z m415 -40 c242 -78 432 -250 533
-481 82 -188 82 -461 0 -649 -79 -180 -241 -354 -394 -424 -95 -43 -135 -59
-159 -65 -25 -5 -25 -4 -22 52 3 53 -12 122 -24 109 -3 -2 -8 -42 -12 -88 -8
-97 -7 -96 -136 -98 l-79 -1 6 143 c3 78 2 151 -3 162 -7 16 -9 14 -8 -15 0
-19 -3 -92 -7 -163 -9 -143 -3 -135 -97 -116 -124 25 -179 55 -134 72 8 3 23
21 32 39 9 18 30 48 45 66 21 24 29 43 29 72 0 27 7 47 24 65 22 23 25 24 29
8 2 -11 7 -2 11 22 4 22 12 61 18 86 9 37 8 59 -7 118 -23 96 -17 183 17 237
19 30 47 51 109 84 83 45 172 122 184 161 4 12 13 18 21 15 10 -4 13 4 11 31
-2 31 2 39 31 56 19 11 52 21 75 23 25 2 46 10 54 20 12 16 13 16 19 0 4 -10
4 -41 1 -69 -5 -43 -4 -48 5 -32 8 13 12 71 12 160 -1 162 -12 201 -86 281
-101 110 -305 136 -476 60 -45 -19 -107 -43 -138 -52 -79 -23 -120 -50 -145
-95 -12 -21 -27 -35 -32 -32 -6 3 -7 1 -3 -5 9 -15 -12 -54 -25 -47 -5 4 -9
-2 -9 -12 0 -11 -5 -24 -11 -30 -6 -6 -19 -57 -29 -114 -10 -57 -26 -129 -34
-159 -19 -62 -22 -179 -7 -228 15 -49 24 -166 17 -206 -4 -19 -20 -49 -37 -67
-26 -28 -28 -33 -13 -44 13 -9 14 -16 5 -33 -17 -32 -13 -36 15 -17 29 19 43
13 24 -10 -24 -29 21 -235 51 -235 5 0 9 7 9 15 0 18 11 19 32 3 20 -16 35
-103 16 -92 -117 72 -221 183 -296 315 -17 30 -46 98 -63 150 -30 88 -32 104
-33 239 0 121 3 158 22 222 45 159 122 288 238 399 107 101 219 164 374 206
75 20 102 23 225 19 119 -3 153 -8 225 -31z m-37 -57 c15 -6 27 -15 27 -20 0
-12 41 -47 56 -48 7 0 26 -13 43 -29 24 -22 31 -38 31 -65 l0 -36 -51 26 c-55
28 -61 41 -11 23 60 -21 52 -4 -13 29 -35 18 -67 38 -70 43 -10 15 5 10 35
-11 28 -20 80 -43 80 -35 0 2 -27 21 -59 42 -73 47 -100 66 -82 57 9 -4 12 -3
7 4 -3 6 -20 13 -36 17 -17 4 -30 11 -30 16 0 10 22 6 73 -13z m-147 -13 c6
-8 16 -15 22 -15 12 0 105 -95 111 -113 2 -7 -19 9 -46 36 -27 26 -56 47 -64
47 -9 0 -24 9 -34 20 -10 11 -33 22 -51 26 -19 3 -34 11 -34 16 0 15 83 0 96
-17z m120 -47 c22 -24 38 -48 32 -48 -2 0 -24 21 -49 47 -24 25 -35 42 -24 36
11 -6 29 -22 41 -35z m-180 17 c50 -15 83 -43 137 -117 27 -36 40 -81 14 -47
-7 9 -18 14 -25 11 -7 -2 -16 5 -19 17 -3 12 -12 21 -20 21 -8 0 -23 10 -33
23 -19 24 -109 72 -175 93 l-40 13 56 0 c30 1 78 -6 105 -14z m-113 -35 c7 0
34 -26 62 -57 54 -62 57 -63 -62 22 -42 30 -57 53 -27 41 9 -3 21 -6 27 -6z
m189 -106 c104 -83 118 -105 40 -65 -40 21 -154 131 -135 131 6 0 49 -30 95
-66z m-235 20 c30 -14 52 -28 50 -30 -2 -2 -39 5 -82 16 -76 20 -144 18 -197
-5 -27 -11 -22 10 6 24 67 36 138 35 223 -5z m391 6 c10 -28 10 -29 -11 -17
-12 7 -23 12 -25 13 -6 2 11 34 18 34 4 0 13 -13 18 -30z m-343 10 c3 -5 2
-10 -4 -10 -5 0 -13 5 -16 10 -3 6 -2 10 4 10 5 0 13 -4 16 -10z m290 -20 c3
-5 2 -10 -4 -10 -5 0 -13 5 -16 10 -3 6 -2 10 4 10 5 0 13 -4 16 -10z m-225
-31 c0 -6 -7 -6 -20 1 -11 6 -20 15 -20 21 0 6 7 6 20 -1 11 -6 20 -15 20 -21z
m383 1 c21 0 41 -26 27 -35 -11 -7 -70 26 -91 52 -13 15 -12 15 18 0 18 -10
38 -17 46 -17z m66 -35 l0 -20 -9 20 c-5 11 -9 29 -9 40 l0 20 9 -20 c5 -11 9
-29 9 -40z m-789 21 c0 -2 -16 -16 -35 -30 -42 -32 -46 -27 -8 9 25 22 43 32
43 21z m133 -19 c-24 -10 -58 -3 -49 11 3 5 20 6 38 4 31 -5 32 -6 11 -15z
m116 7 c2 -2 -17 -4 -42 -4 -26 0 -47 4 -47 9 0 8 79 3 89 -5z m-181 -16 c-3
-7 -19 -13 -37 -14 -19 -1 -47 -13 -71 -33 -42 -34 -56 -29 -17 6 47 44 135
72 125 41z m372 -50 c41 -20 84 -43 95 -51 l20 -16 -20 0 c-11 0 -40 4 -65 9
-28 5 -47 5 -51 -1 -3 -6 -46 2 -105 20 -93 28 -94 43 -2 22 59 -14 35 5 -32
25 -74 22 -61 37 25 31 42 -3 84 -15 135 -39z m175 32 c3 -5 2 -10 -4 -10 -5
0 -13 5 -16 10 -3 6 -2 10 4 10 5 0 13 -4 16 -10z m-645 -61 c-43 -34 -67 -42
-30 -9 19 16 39 30 45 30 5 0 -1 -9 -15 -21z m288 -34 c3 -3 -6 -5 -20 -5 -51
0 -128 -31 -175 -72 -56 -47 -89 -100 -113 -178 -15 -52 -15 -59 3 -134 12
-50 15 -86 10 -99 -6 -13 -14 13 -28 95 -10 62 -21 105 -23 95 -2 -9 1 -40 7
-67 12 -55 0 -114 -14 -75 -5 11 -18 46 -31 77 -34 82 -34 150 0 220 28 59 98
138 123 138 19 0 16 -13 -7 -27 -10 -7 -38 -41 -62 -75 -41 -61 -42 -66 -43
-143 0 -44 6 -100 13 -124 19 -61 24 -46 7 19 -17 64 -20 144 -5 135 6 -3 7
-18 4 -32 -5 -18 -3 -24 5 -19 6 4 11 31 11 59 0 87 68 185 147 212 35 12 179
12 191 0z m337 -15 c3 -5 1 -10 -4 -10 -6 0 -11 5 -11 10 0 6 2 10 4 10 3 0 8
-4 11 -10z m-335 -21 c-25 -4 -63 -7 -85 -7 -34 0 -36 1 -15 8 14 4 52 8 85 8
l60 -1 -45 -8z m33 -26 c-7 -2 -19 -2 -25 0 -7 3 -2 5 12 5 14 0 19 -2 13 -5z
m-63 -32 c20 -6 14 -9 -34 -15 -32 -4 -83 -16 -114 -26 -31 -10 -58 -17 -61
-14 -7 6 32 45 54 55 24 10 121 10 155 0z m175 0 l40 -8 -50 -8 c-27 -4 -57
-12 -65 -17 -11 -7 -10 -8 5 -3 15 5 17 3 8 -6 -16 -16 -86 -28 -163 -28 -60
0 -63 1 -40 13 14 8 68 22 120 32 83 17 91 20 60 25 l-35 6 40 1 c22 1 58 -3
80 -7z m145 -6 c-46 -18 -61 -18 -30 0 14 8 34 14 45 14 13 0 8 -5 -15 -14z
m-57 -57 c-2 -5 -19 -8 -37 -8 -23 0 -38 -7 -48 -21 -13 -20 -18 -21 -54 -12
-38 10 -39 10 -14 20 54 23 87 30 121 29 21 0 35 -4 32 -8z m-343 -23 c0 -3
-20 -14 -45 -25 -25 -11 -57 -31 -71 -45 -14 -15 -29 -23 -32 -20 -12 12 24
60 58 77 33 17 90 25 90 13z m389 -47 c-8 -14 -14 -18 -17 -10 -4 13 17 46 25
38 3 -2 -1 -15 -8 -28z m-568 -43 c-8 -46 -9 -47 -10 -13 -1 34 8 73 15 66 2
-2 -1 -26 -5 -53z m159 37 l-35 -17 0 -107 c0 -75 4 -111 13 -120 11 -11 12
-9 7 7 -3 11 9 -9 28 -45 19 -36 32 -68 30 -72 -2 -5 0 -8 5 -8 11 0 35 -51
27 -58 -11 -11 -77 73 -112 142 -32 63 -35 75 -30 130 3 34 9 73 13 89 4 17 2
27 -5 27 -6 0 -11 -7 -11 -15 0 -8 -7 -15 -15 -15 -8 0 -15 -6 -15 -12 -1 -7
-9 -30 -19 -52 l-18 -38 -6 28 c-3 16 -2 33 1 39 4 5 5 19 3 30 -2 11 1 17 5
12 4 -4 22 6 39 23 31 30 71 48 110 49 14 0 9 -5 -15 -17z m297 -9 c5 -15 -72
-72 -106 -79 -14 -3 -38 -12 -53 -20 -16 -9 -29 -11 -33 -5 -3 6 4 15 16 21
11 7 18 14 16 17 -9 8 -47 -17 -47 -31 0 -8 -9 -24 -20 -37 l-19 -24 -1 38 c0
29 7 45 28 67 27 26 85 50 125 50 9 0 17 5 17 11 0 14 72 7 77 -8z m-219 0
c-49 -98 -58 -141 -39 -187 6 -16 10 -34 7 -40 -2 -6 -5 -2 -6 9 -2 14 -4 11
-9 -9 l-6 -29 -22 45 c-25 50 -31 130 -12 172 7 14 24 30 38 35 32 12 54 13
49 4z m290 -35 c-3 -7 -15 -14 -29 -16 -23 -2 -23 -2 -5 13 24 18 39 20 34 3z
m-239 -118 c-22 -23 -39 -51 -40 -63 0 -22 -1 -22 -10 -2 -15 30 4 71 43 94
47 29 50 17 7 -29z m41 4 c0 -3 -6 -12 -14 -19 -20 -20 -50 -121 -42 -141 5
-14 4 -15 -9 -4 -29 24 -14 105 28 147 22 21 37 29 37 17z m-252 -191 c6 -55
-2 -85 -34 -123 -15 -17 -24 -34 -20 -37 13 -13 47 35 61 83 12 46 13 47 13
14 1 -54 -19 -96 -62 -129 -38 -31 -106 -44 -106 -21 0 6 7 10 15 10 8 0 15 5
15 10 0 6 -4 10 -9 10 -6 0 -13 -4 -16 -10 -8 -12 -25 -13 -25 -1 0 5 18 16
40 25 24 9 48 29 59 47 24 39 44 147 36 197 l-5 37 16 -35 c9 -19 19 -54 22
-77z m-158 1 c0 -44 -31 -121 -54 -136 -23 -16 -26 -7 -6 20 23 31 39 88 40
140 0 20 4 31 10 27 6 -3 10 -26 10 -51z m211 -97 c-8 -8 -11 2 -10 34 l1 44
10 -34 c6 -23 6 -37 -1 -44z m-210 -58 c-24 -20 -57 -26 -46 -9 3 6 12 10 19
10 8 0 19 7 26 15 7 9 16 13 19 9 3 -3 -5 -14 -18 -25z m268 0 c16 -45 14 -48
-9 -14 -22 33 -25 45 -11 45 5 0 14 -14 20 -31z m91 -67 c0 -25 -29 -81 -49
-94 -12 -7 -21 -23 -21 -35 0 -12 -4 -24 -9 -27 -12 -8 4 61 19 79 13 15 10
111 -5 150 -4 11 9 2 29 -20 19 -22 35 -46 36 -53z m-174 13 c13 -28 7 -40
-13 -24 -14 12 -18 49 -5 49 4 0 12 -11 18 -25z m58 -27 c10 -16 25 -28 32
-28 16 0 16 -2 8 -24 -7 -18 -34 -22 -34 -5 0 5 -4 8 -9 5 -5 -3 -11 7 -14 23
-3 16 -9 42 -12 57 -3 16 -2 22 2 14 5 -8 16 -27 27 -42z m-64 -78 c13 -45 13
-157 0 -165 -16 -10 -24 23 -10 40 16 19 7 104 -13 137 -8 13 -18 34 -22 48
l-6 25 20 -25 c12 -14 25 -41 31 -60z m-57 32 c18 -20 47 -85 47 -104 -1 -7
-14 12 -30 42 -16 30 -29 48 -30 40 0 -12 -3 -12 -16 2 -9 9 -13 21 -10 27 10
16 20 14 39 -7z m-119 -53 c-1 -33 -4 -63 -7 -65 -2 -2 -10 14 -17 36 -10 31
-11 46 -2 65 19 42 29 28 26 -36z m66 -3 c0 -12 -9 -32 -20 -46 l-19 -25 -10
28 c-8 22 -7 36 5 65 15 35 16 36 30 18 8 -11 14 -29 14 -40z m189 -96 c0 -23
-1 -23 -9 -5 -5 11 -9 29 -9 40 -1 17 1 17 9 5 5 -8 9 -26 9 -40z m-179 30 c0
-5 -4 -10 -10 -10 -5 0 -10 5 -10 10 0 6 5 10 10 10 6 0 10 -4 10 -10z m160
-74 c0 -25 -53 -69 -87 -72 -47 -5 -41 12 13 37 25 12 48 28 51 36 7 17 23 17
23 -1z"/>
<path d="M3468 2013 c12 -2 30 -2 40 0 9 3 -1 5 -23 4 -22 0 -30 -2 -17 -4z"/>
<path d="M3465 1920 c-4 -7 6 -10 29 -8 19 1 39 -1 43 -6 12 -11 -20 -26 -44
-20 -23 6 -44 -8 -55 -36 -4 -12 1 -15 21 -14 14 0 31 2 36 4 6 2 29 3 52 4
45 1 63 19 25 24 -20 3 -22 8 -17 33 7 29 6 29 -39 29 -24 0 -48 -5 -51 -10z"/>
<path d="M3510 1810 c0 -11 -18 -49 -40 -82 -22 -34 -40 -67 -40 -72 0 -6 6
-2 12 9 6 11 24 37 40 57 33 42 52 95 37 103 -5 4 -9 -3 -9 -15z"/>
<path d="M3421 1784 c0 -11 3 -14 6 -6 3 7 2 16 -1 19 -3 4 -6 -2 -5 -13z"/>
<path d="M3298 1693 c-36 -9 -7 -57 38 -65 23 -3 54 18 54 37 0 7 -11 16 -24
19 -13 3 -30 8 -38 10 -7 2 -21 2 -30 -1z"/>
<path d="M3158 1628 c17 -17 15 -41 -3 -34 -8 3 -15 1 -15 -4 0 -13 67 -30
116 -30 49 0 102 -32 124 -75 9 -18 15 -63 16 -115 2 -84 7 -97 33 -81 10 6
11 13 2 29 -6 11 -11 33 -11 48 0 27 1 27 16 8 15 -18 15 -17 10 16 -4 18 -10
36 -14 40 -5 3 -19 26 -31 52 -29 61 -70 90 -140 99 -43 6 -61 14 -76 33 -12
15 -25 26 -30 26 -5 0 -4 -5 3 -12z"/>
<path d="M3280 1372 c0 -14 39 -46 47 -39 3 4 -2 16 -12 27 -19 21 -35 26 -35
12z"/>
<path d="M3232 1268 c6 -17 36 -34 44 -25 4 4 -1 14 -12 22 -23 18 -37 19 -32
3z"/>
<path d="M3441 1265 c0 -11 8 -36 19 -55 25 -45 25 -37 0 25 -10 28 -19 41
-19 30z"/>
<path d="M3375 1221 c-6 -11 44 -65 52 -57 5 5 -34 66 -42 66 -2 0 -6 -4 -10
-9z"/>
<path d="M3511 1114 c-8 -41 -12 -77 -9 -79 2 -2 10 29 17 71 8 41 12 77 9 79
-2 2 -10 -29 -17 -71z"/>
<path d="M3243 1163 c9 -9 19 -14 23 -11 10 10 -6 28 -24 28 -15 0 -15 -1 1
-17z"/>
<path d="M3356 1134 c-7 -19 10 -44 30 -44 17 0 17 2 2 35 -13 29 -23 32 -32
9z"/>
<path d="M3492 990 c0 -19 2 -27 5 -17 2 9 2 25 0 35 -3 9 -5 1 -5 -18z"/>
<path d="M3180 1860 c-13 -8 -12 -10 3 -10 9 0 17 5 17 10 0 12 -1 12 -20 0z"/>
<path d="M3700 2476 c0 -2 8 -10 18 -17 15 -13 16 -12 3 4 -13 16 -21 21 -21
13z"/>
<path d="M2556 2423 c-6 -14 -5 -15 5 -6 7 7 10 15 7 18 -3 3 -9 -2 -12 -12z"/>
<path d="M2499 2373 l-34 -38 38 34 c34 33 42 41 34 41 -2 0 -19 -17 -38 -37z"/>
<path d="M3830 2361 c0 -5 5 -13 10 -16 6 -3 10 -2 10 4 0 5 -4 13 -10 16 -5
3 -10 2 -10 -4z"/>
<path d="M2438 2305 c-25 -34 -22 -43 3 -11 12 15 20 29 18 31 -2 1 -12 -7
-21 -20z"/>
<path d="M3875 2310 c10 -11 20 -20 23 -20 3 0 -3 9 -13 20 -10 11 -20 20 -23
20 -3 0 3 -9 13 -20z"/>
<path d="M3905 2270 c3 -5 8 -10 11 -10 2 0 4 5 4 10 0 6 -5 10 -11 10 -5 0
-7 -4 -4 -10z"/>
<path d="M3995 2130 c9 -16 18 -30 21 -30 2 0 -2 14 -11 30 -9 17 -18 30 -21
30 -2 0 2 -13 11 -30z"/>
<path d="M2307 2095 c-24 -50 -20 -58 4 -12 11 22 19 41 17 43 -3 2 -12 -12
-21 -31z"/>
<path d="M4021 2085 c-1 -5 13 -48 29 -95 30 -86 42 -93 16 -10 -17 54 -45
119 -45 105z"/>
<path d="M2265 1985 c-9 -32 -14 -59 -12 -61 2 -3 11 21 20 53 9 31 15 58 13
61 -2 2 -12 -22 -21 -53z"/>
<path d="M2236 1878 c-13 -65 -17 -214 -8 -268 9 -48 9 -43 5 40 -3 52 0 131
6 174 11 80 9 115 -3 54z"/>
<path d="M4082 1875 c0 -16 2 -22 5 -12 2 9 2 23 0 30 -3 6 -5 -1 -5 -18z"/>
<path d="M4091 1804 c0 -11 3 -14 6 -6 3 7 2 16 -1 19 -3 4 -6 -2 -5 -13z"/>
<path d="M4103 1705 c0 -27 2 -38 4 -22 2 15 2 37 0 50 -2 12 -4 0 -4 -28z"/>
<path d="M4092 1604 c-1 -17 -11 -64 -22 -105 -10 -41 -22 -85 -25 -99 l-6
-25 11 25 c24 53 51 172 47 203 l-4 32 -1 -31z"/>
<path d="M2241 1530 c0 -14 7 -41 14 -60 18 -46 18 -28 0 35 -8 29 -14 39 -14
25z"/>
<path d="M2271 1420 c0 -8 6 -28 14 -45 l14 -30 -6 30 c-7 38 -22 68 -22 45z"/>
<path d="M2311 1325 c1 -19 18 -51 18 -35 0 8 -4 22 -9 30 -5 8 -9 11 -9 5z"/>
<path d="M4000 1299 c-7 -11 -10 -23 -7 -25 2 -2 9 7 15 21 14 30 7 33 -8 4z"/>
<path d="M2390 1185 c0 -5 5 -17 10 -25 5 -8 10 -10 10 -5 0 6 -5 17 -10 25
-5 8 -10 11 -10 5z"/>
<path d="M3915 1159 c-4 -6 -5 -12 -2 -15 2 -3 7 2 10 11 7 17 1 20 -8 4z"/>
<path d="M2470 1081 c0 -6 4 -13 10 -16 6 -3 7 1 4 9 -7 18 -14 21 -14 7z"/>
<path d="M3128 773 c17 -2 47 -2 65 0 17 2 3 4 -33 4 -36 0 -50 -2 -32 -4z"/>
<path d="M2218 2313 c-14 -14 -20 -14 -33 -3 -22 18 -32 4 -12 -17 11 -13 13
-23 6 -35 -12 -22 5 -33 21 -13 9 11 17 12 31 4 15 -7 19 -6 19 6 0 8 -5 15
-11 15 -6 0 -8 7 -5 15 3 8 9 22 12 30 8 20 -8 19 -28 -2z"/>
<path d="M4080 2324 c0 -3 5 -15 11 -26 9 -17 8 -23 -5 -30 -24 -13 -9 -30 15
-18 15 9 21 7 25 -5 9 -22 24 -19 24 5 0 11 -6 20 -12 20 -7 0 -5 5 5 11 25
15 21 32 -7 25 -16 -4 -26 -1 -30 9 -5 14 -26 22 -26 9z"/>
<path d="M1922 2060 c-18 -32 -32 -39 -32 -16 0 15 -37 32 -47 22 -10 -10 7
-38 27 -43 24 -6 25 -10 5 -29 -8 -9 -15 -24 -15 -34 0 -27 29 -15 41 17 l9
23 20 -20 c23 -23 50 -27 50 -7 0 19 -21 37 -42 37 -10 0 -18 5 -18 10 0 6 6
10 14 10 14 0 26 21 26 46 0 24 -20 16 -38 -16z"/>
<path d="M4367 2083 c-7 -12 11 -53 23 -53 18 0 11 -18 -10 -23 -20 -5 -37
-33 -27 -43 10 -10 47 7 47 22 0 23 20 16 30 -11 5 -14 16 -25 25 -25 19 0 20
36 0 44 -19 7 -20 26 0 26 12 0 35 28 35 44 0 14 -32 4 -47 -14 -22 -25 -33
-26 -33 -2 0 28 -32 54 -43 35z"/>
<path d="M1352 1835 l3 -116 -26 6 c-28 6 -79 -3 -79 -14 0 -3 21 -14 48 -23
93 -33 167 -119 219 -251 30 -78 43 -69 19 13 -36 122 -29 244 20 315 13 20
24 40 24 45 0 20 -33 9 -60 -20 -27 -29 -40 -30 -40 -3 0 18 -111 163 -125
163 -4 0 -6 -52 -3 -115z"/>
<path d="M4910 1880 c-30 -38 -56 -75 -58 -82 -11 -39 -13 -39 -41 -9 -16 17
-38 31 -50 31 -27 0 -27 -2 8 -50 53 -73 61 -210 20 -338 -12 -36 -6 -70 6
-37 29 77 90 187 124 221 22 22 64 51 93 64 67 30 65 29 48 41 -8 5 -34 7 -57
4 -40 -6 -58 5 -33 20 11 7 14 205 3 205 -5 -1 -33 -32 -63 -70z"/>
<path d="M1114 1723 c-4 -28 -2 -65 5 -90 17 -67 15 -73 -23 -73 -103 0 -219
-44 -282 -108 -41 -42 -71 -88 -63 -97 3 -2 44 15 92 39 117 59 207 80 311 73
117 -8 196 -39 267 -107 65 -62 85 -97 110 -190 14 -55 17 -60 18 -30 1 57
-35 179 -80 267 -41 81 -77 123 -178 203 -86 68 -111 92 -131 126 -12 19 -25
34 -30 34 -5 0 -12 -21 -16 -47z"/>
<path d="M5175 1743 c-25 -38 -45 -57 -153 -147 -104 -87 -127 -114 -172 -203
-38 -77 -87 -260 -72 -275 7 -7 12 5 17 34 7 45 44 136 67 163 63 76 126 117
214 139 129 33 269 12 413 -61 46 -24 86 -41 89 -39 7 8 -34 69 -70 102 -67
62 -173 104 -266 104 -23 0 -43 4 -47 9 -3 5 2 28 11 51 11 27 15 57 11 86 -6
61 -19 72 -42 37z"/>
<path d="M4210 1381 c0 -29 22 -61 41 -61 5 0 9 -7 9 -15 0 -9 -9 -15 -24 -15
-23 0 -56 -32 -56 -53 0 -4 15 -7 33 -5 22 2 35 10 42 26 13 30 33 28 37 -5 3
-27 50 -65 63 -51 11 10 -23 78 -39 78 -27 0 -18 28 10 32 24 3 65 51 53 62
-11 12 -65 -12 -74 -32 -12 -27 -29 -23 -33 6 -2 12 -17 31 -33 42 l-29 21 0
-30z"/>
<path d="M2076 1379 c-19 -15 -25 -27 -21 -40 4 -13 2 -19 -9 -19 -9 0 -16 -9
-16 -20 0 -11 -6 -20 -14 -20 -18 0 -33 -19 -41 -53 -6 -21 -4 -27 9 -27 20 0
56 39 56 62 0 24 8 23 36 -7 13 -14 34 -25 49 -25 30 0 31 7 6 39 -13 17 -25
22 -40 18 -16 -4 -21 -1 -21 14 0 10 4 19 9 19 18 0 41 32 41 56 0 29 -9 30
-44 3z"/>
<path d="M1950 1367 c0 -22 30 -57 50 -57 43 0 34 43 -12 59 -39 14 -38 14
-38 -2z"/>
<path d="M1450 855 c0 -4 7 -20 16 -36 11 -22 21 -29 36 -27 30 4 33 23 9 47
-19 19 -61 29 -61 16z"/>
<path d="M4819 842 c-15 -13 -20 -25 -16 -36 11 -28 49 -16 64 22 12 29 12 32
-6 32 -10 0 -29 -8 -42 -18z"/>
<path d="M1523 781 c-3 -11 -15 -22 -27 -25 -22 -5 -52 -53 -41 -64 11 -11 60
14 70 36 5 12 15 22 22 22 17 0 24 15 17 34 -8 22 -35 20 -41 -3z"/>
<path d="M1567 753 c-21 -20 9 -62 46 -63 21 0 22 19 1 48 -15 22 -35 28 -47
15z"/>
<path d="M2472 705 c0 -16 2 -22 5 -12 2 9 2 23 0 30 -3 6 -5 -1 -5 -18z"/>
<path d="M3852 705 c0 -16 2 -22 5 -12 2 9 2 23 0 30 -3 6 -5 -1 -5 -18z"/>
<path d="M2414 705 c-8 -20 4 -35 27 -35 22 0 23 4 9 31 -13 23 -28 25 -36 4z"/>
<path d="M3880 712 c0 -6 -3 -18 -6 -27 -5 -13 -2 -16 17 -13 29 4 34 41 7 46
-10 2 -18 -1 -18 -6z"/>
<path d="M745 641 c-3 -5 -1 -12 3 -15 5 -3 857 -6 1893 -6 3122 -1 2889 -2
2889 15 0 13 -272 15 -2389 15 -1464 0 -2392 -4 -2396 -9z"/>
<path d="M3107 565 c61 -26 69 -81 23 -171 -16 -32 -54 -83 -84 -113 l-54 -54
-66 14 c-72 14 -118 6 -124 -22 -4 -20 39 -39 81 -38 26 1 28 2 7 6 -57 9 -70
14 -70 29 0 14 8 16 47 11 26 -3 52 -12 58 -21 7 -9 21 -16 31 -16 11 0 46 -9
78 -20 38 -14 76 -20 110 -18 46 3 48 4 21 11 -78 21 -139 43 -142 53 -2 5 9
17 24 26 40 23 125 111 145 150 18 32 23 84 12 123 -7 28 -64 65 -100 65 l-29
-1 32 -14z"/>
<path d="M4756 561 c-17 -11 -34 -17 -39 -14 -6 3 -7 2 -4 -4 4 -5 -7 -23 -24
-39 -17 -16 -43 -49 -57 -74 -32 -56 -40 -61 -74 -54 -17 3 -28 1 -28 -5 0 -6
11 -11 25 -11 34 0 31 -15 -13 -80 -38 -55 -45 -59 -92 -46 -22 6 -21 5 5 -10
l30 -17 -35 -15 c-24 -10 -56 -13 -100 -9 -38 3 -57 1 -45 -4 48 -19 227 3
233 29 1 7 16 27 33 45 17 17 40 49 50 70 18 33 24 37 62 39 37 1 38 2 10 5
-18 2 -33 9 -33 14 0 13 45 99 64 124 16 20 16 20 36 -4 30 -35 25 -58 -32
-170 -54 -108 -82 -137 -138 -144 -32 -3 -31 -4 9 -5 85 -3 166 72 207 192 15
44 15 51 0 91 -9 24 -24 46 -31 49 -21 8 -18 25 8 47 29 24 10 24 -27 0z"/>
<path d="M4356 548 c-18 -25 -20 -38 -8 -38 10 0 35 50 28 57 -2 2 -11 -6 -20
-19z"/>
<path d="M4579 556 c14 -16 5 -88 -16 -129 -8 -16 -12 -31 -9 -34 11 -11 46
89 46 131 0 36 -4 46 -16 46 -13 0 -14 -3 -5 -14z"/>
<path d="M1634 550 c92 -28 101 -132 14 -169 l-42 -18 32 -6 c29 -6 32 -10 32
-44 0 -81 -58 -136 -124 -119 -21 5 -26 13 -27 39 l-2 32 -4 -30 c-6 -38 17
-55 73 -55 56 0 84 14 112 54 27 40 29 90 3 113 -19 16 -18 17 15 48 26 25 34
40 34 66 -1 55 -50 100 -110 98 l-35 -1 29 -8z"/>
<path d="M4538 553 c7 -3 16 -2 19 1 4 3 -2 6 -13 5 -11 0 -14 -3 -6 -6z"/>
<path d="M3098 518 c23 -29 -5 -102 -70 -180 -47 -57 -42 -63 8 -10 39 40 84
124 84 158 0 12 -8 28 -17 35 -16 13 -17 12 -5 -3z"/>
<path d="M1400 510 c-9 -6 -10 -10 -3 -10 6 0 15 5 18 10 8 12 4 12 -15 0z"/>
<path d="M2948 503 c-46 -52 -77 -157 -55 -186 10 -15 12 -11 9 25 -3 34 4 58
31 111 20 37 34 67 33 67 -2 0 -10 -8 -18 -17z"/>
<path d="M4022 480 c-28 -32 -152 -266 -152 -287 0 -23 26 -14 41 15 7 15 24
39 36 55 12 15 20 33 17 41 -3 7 2 19 11 26 8 7 15 17 15 23 0 15 39 96 62
130 26 37 3 35 -30 -3z"/>
<path d="M1566 461 c-40 -41 -55 -63 -82 -121 -37 -80 -78 -133 -118 -151 -23
-10 -34 -19 -26 -19 30 0 96 38 128 74 18 20 51 71 73 113 23 43 52 93 66 111
34 46 6 42 -41 -7z"/>
<path d="M4093 473 c-7 -15 -11 -28 -9 -31 6 -6 28 38 24 48 -2 5 -9 -3 -15
-17z"/>
<path d="M1372 478 c-7 -7 -11 -26 -11 -42 l2 -31 4 30 c3 17 9 36 15 43 13
15 6 16 -10 0z"/>
<path d="M1455 450 c0 -21 3 -36 7 -34 5 3 8 18 8 34 0 16 -3 31 -8 34 -4 2
-7 -13 -7 -34z"/>
<path d="M2272 478 c-5 -7 -35 -63 -67 -124 -66 -130 -70 -167 -19 -172 22 -2
40 5 63 24 61 51 85 139 34 122 -4 -2 -6 -10 -5 -19 3 -18 -52 -95 -80 -113
-45 -28 -31 27 24 90 18 21 27 35 21 30 -19 -11 -17 -3 27 83 21 43 36 81 33
85 -10 9 -20 7 -31 -6z"/>
<path d="M4371 441 c-7 -16 -11 -40 -8 -53 4 -20 4 -20 6 5 0 16 6 37 12 49 6
11 9 22 6 24 -2 3 -10 -9 -16 -25z"/>
<path d="M3535 429 c-7 -11 22 -49 37 -49 5 0 2 14 -7 30 -17 33 -21 35 -30
19z"/>
<path d="M4973 373 c-7 -2 -13 -11 -13 -18 0 -7 6 -15 13 -18 6 -3 -10 -4 -36
-2 -44 2 -51 -1 -83 -33 -37 -39 -45 -80 -18 -106 20 -21 47 -20 71 2 10 9 14
14 9 10 -6 -5 -20 -8 -33 -8 -28 0 -30 24 -6 75 15 32 33 47 33 27 0 -10 35
-52 43 -52 3 0 8 14 12 30 4 17 18 42 31 56 33 32 19 55 -23 37z"/>
<path d="M1288 353 c6 -2 18 -2 25 0 6 3 1 5 -13 5 -14 0 -19 -2 -12 -5z"/>
<path d="M1834 321 c-64 -39 -98 -120 -58 -135 23 -9 26 -8 21 7 -7 18 21 79
50 109 33 35 27 43 -13 19z"/>
<path d="M1905 330 c-11 -5 -16 -9 -12 -9 5 -1 -4 -23 -18 -50 -29 -53 -30
-84 -1 -89 12 -3 17 1 14 10 -3 7 8 39 25 71 30 60 27 81 -8 67z"/>
<path d="M2029 333 c-1 -5 -2 -12 -3 -18 -1 -5 -15 -36 -31 -67 -16 -32 -26
-60 -22 -64 14 -14 38 8 57 51 15 36 24 45 44 45 24 0 56 23 56 41 0 14 -48
11 -54 -3 -3 -9 -8 -8 -16 5 -11 17 -29 23 -31 10z"/>
<path d="M2526 264 c-20 -42 -36 -78 -36 -80 0 -2 8 -4 18 -4 10 0 27 19 42
48 18 34 32 48 50 50 30 5 50 20 50 38 0 16 -36 19 -45 3 -5 -7 -13 -5 -25 6
-16 15 -20 11 -54 -61z"/>
<path d="M3307 333 c-4 -3 -7 -12 -7 -20 0 -7 -12 -32 -26 -54 -14 -22 -24
-48 -22 -57 4 -21 43 -23 43 -2 0 9 11 36 24 61 14 26 22 53 18 62 -7 18 -19
22 -30 10z"/>
<path d="M3404 332 c-6 -4 -21 -25 -33 -47 -12 -22 -27 -47 -33 -57 -9 -13 -9
-20 1 -32 19 -22 41 -20 41 4 0 12 12 44 26 72 24 47 23 76 -2 60z"/>
<path d="M3510 328 c0 -7 -12 -36 -27 -64 -24 -46 -27 -84 -6 -84 12 1 65 118
61 137 -4 20 -28 30 -28 11z"/>
<path d="M3568 278 c-21 -32 -38 -64 -38 -69 0 -6 -5 -20 -12 -32 -7 -12 -13
-27 -14 -34 -3 -20 -44 -73 -56 -73 -6 0 -8 13 -5 33 6 31 -3 19 -17 -25 -5
-17 -71 -18 -1196 -18 -1105 0 -1276 -4 -1157 -25 17 -3 959 -4 2091 -3 1637
2 2060 6 2064 16 3 9 -174 12 -862 12 -729 0 -866 2 -866 14 0 7 7 19 16 27
14 11 128 228 122 230 -26 7 -38 -2 -70 -53z"/>
<path d="M3707 334 c-4 -4 -7 -14 -7 -21 0 -8 -12 -39 -27 -69 -26 -54 -26
-71 0 -61 25 10 76 108 68 131 -9 22 -23 30 -34 20z"/>
<path d="M3790 321 c0 -11 -10 -40 -21 -65 -23 -46 -20 -76 6 -76 9 0 15 9 15
23 0 12 9 37 21 56 23 38 22 74 -3 79 -13 2 -18 -3 -18 -17z"/>
<path d="M4014 325 c-4 -8 -11 -12 -17 -8 -6 3 -7 1 -3 -6 4 -7 1 -27 -8 -45
-23 -49 -24 -79 -3 -84 10 -2 17 3 17 13 0 8 11 38 25 65 14 27 25 56 25 65 0
19 -29 20 -36 0z"/>
<path d="M4433 333 c9 -2 23 -2 30 0 6 3 -1 5 -18 5 -16 0 -22 -2 -12 -5z"/>
<path d="M5043 323 c-3 -10 -17 -42 -30 -72 -27 -62 -28 -71 -9 -71 20 0 78
99 74 128 -4 31 -26 41 -35 15z"/>
<path d="M5129 333 c-1 -5 -2 -13 -3 -19 0 -6 -12 -34 -26 -63 -20 -44 -22
-54 -10 -62 21 -12 43 -11 34 2 -3 6 6 35 21 65 28 55 28 84 0 84 -8 0 -16 -3
-16 -7z"/>
<path d="M1107 301 c-45 -76 43 -148 168 -138 l50 3 -58 2 c-122 4 -185 62
-146 134 17 31 5 31 -14 -1z"/>
<path d="M1364 297 c0 -18 -4 -41 -8 -52 l-9 -20 16 20 c17 21 23 70 10 78 -5
3 -8 -9 -9 -26z"/>
<path d="M2364 298 c-26 -25 -35 -42 -36 -66 -1 -38 14 -52 52 -51 17 1 19 3
8 6 -19 5 -26 53 -7 53 5 0 7 5 4 10 -4 6 5 26 20 45 35 46 9 48 -41 3z"/>
<path d="M2446 317 c3 -8 -7 -28 -21 -46 -33 -38 -12 -42 28 -5 30 28 32 57 4
62 -11 2 -15 -1 -11 -11z"/>
<path d="M3260 305 c-7 -9 -11 -18 -8 -20 3 -3 11 1 18 10 7 9 11 18 8 20 -3
3 -11 -1 -18 -10z"/>
<path d="M3462 308 c-7 -7 -12 -16 -12 -20 0 -15 15 -8 28 12 13 22 3 27 -16
8z"/>
<path d="M1975 300 c-3 -5 -2 -10 4 -10 5 0 13 5 16 10 3 6 2 10 -4 10 -5 0
-13 -4 -16 -10z"/>
<path d="M2491 288 c-14 -23 -14 -23 8 -4 22 20 25 26 13 26 -4 0 -13 -10 -21
-22z"/>
<path d="M4990 295 c-7 -9 -11 -18 -8 -20 3 -3 11 1 18 10 7 9 11 18 8 20 -3
3 -11 -1 -18 -10z"/>
<path d="M3646 284 c-5 -14 -4 -15 9 -4 17 14 19 20 6 20 -5 0 -12 -7 -15 -16z"/>
<path d="M1160 265 c0 -38 118 -72 159 -46 8 5 -4 7 -32 4 -57 -7 -107 12
-107 38 0 11 -4 19 -10 19 -5 0 -10 -7 -10 -15z"/>
<path d="M4230 246 c0 -26 23 -56 43 -56 6 0 1 7 -12 16 -16 12 -22 23 -18 40
2 13 0 24 -4 24 -5 0 -9 -11 -9 -24z"/>
<path d="M4348 263 c7 -3 16 -2 19 1 4 3 -2 6 -13 5 -11 0 -14 -3 -6 -6z"/>
<path d="M4390 250 c8 -5 20 -10 25 -10 6 0 3 5 -5 10 -8 5 -19 10 -25 10 -5
0 -3 -5 5 -10z"/>
<path d="M2429 214 c-23 -25 -23 -26 -2 -15 23 12 38 29 31 37 -3 2 -15 -8
-29 -22z"/>
<path d="M3821 217 c-13 -21 -12 -21 5 -5 10 10 16 20 13 22 -3 3 -11 -5 -18
-17z"/>
<path d="M4036 224 c-5 -14 -4 -15 9 -4 17 14 19 20 6 20 -5 0 -12 -7 -15 -16z"/>
<path d="M5160 225 c-7 -9 -8 -15 -2 -15 5 0 12 7 16 15 3 8 4 15 2 15 -2 0
-9 -7 -16 -15z"/>
<path d="M1920 219 c0 -5 5 -7 10 -4 6 3 10 8 10 11 0 2 -4 4 -10 4 -5 0 -10
-5 -10 -11z"/>
<path d="M3133 223 c9 -2 23 -2 30 0 6 3 -1 5 -18 5 -16 0 -22 -2 -12 -5z"/>
</g>
</svg>
